<svg width="11" height="10" viewBox="0 0 11 10" fill="none" xmlns="http://www.w3.org/2000/svg">
<path d="M0 4.51628C0 4.26315 0.188103 4.05395 0.432153 4.02084L0.5 4.01628L10.5 4.01628C10.7761 4.01628 11 4.24014 11 4.51628C11 4.76941 10.8119 4.97861 10.5678 5.01171L10.5 5.01628L0.5 5.01628C0.223858 5.01628 0 4.79242 0 4.51628Z" fill="#3D3D3D"/>
<path d="M6.11401 0.854314C5.91832 0.659472 5.91764 0.342891 6.11248 0.147209C6.28961 -0.0306841 6.56735 -0.0474193 6.7634 0.0973952L6.81959 0.145686L10.8529 4.16169C11.0313 4.33934 11.0476 4.61809 10.9016 4.81413L10.853 4.87028L6.81962 8.88695C6.62395 9.08181 6.30737 9.08115 6.11251 8.88549C5.93537 8.70761 5.91981 8.4298 6.06545 8.23436L6.11398 8.17838L9.79133 4.5158L6.11401 0.854314Z" fill="#3D3D3D"/>
</svg>
